<?xml version="1.0" standalone="no"?>
<!DOCTYPE svg PUBLIC "-//W3C//DTD SVG 20010904//EN"
 "http://www.w3.org/TR/2001/REC-SVG-20010904/DTD/svg10.dtd">
<svg version="1.0" xmlns="http://www.w3.org/2000/svg"
 width="32.000000pt" height="36.000000pt" viewBox="0 0 32.000000 36.000000"
 preserveAspectRatio="xMidYMid meet">
<metadata>
Created by potrace 1.16, written by Peter Selinger 2001-2019
</metadata>
<g transform="translate(0.000000,36.000000) scale(0.100000,-0.100000)"
fill="#000000" stroke="none">
<path d="M105 304 c-27 -14 -55 -32 -61 -39 -12 -15 -9 -194 3 -206 4 -4 37
-12 73 -17 63 -9 66 -9 110 21 56 38 54 36 48 42 -2 3 -26 -9 -52 -25 -42 -27
-52 -29 -101 -24 -56 7 -81 23 -72 47 4 11 18 12 67 5 59 -9 62 -8 112 23 28
18 46 35 40 37 -6 2 -29 -9 -51 -24 -37 -24 -47 -26 -97 -20 -68 8 -74 11 -74
38 0 19 4 20 68 14 63 -6 70 -4 117 26 28 17 45 33 38 35 -6 2 -30 -8 -52 -23
-39 -25 -45 -26 -104 -18 -57 8 -62 11 -62 34 0 14 5 24 10 24 113 -15 119
-15 170 17 55 36 52 41 -35 52 -36 5 -55 1 -95 -19z"/>
</g>
</svg>
